<svg width="56" height="56" viewBox="0 0 56 56" fill="none" xmlns="http://www.w3.org/2000/svg">
<g clip-path="url(#clip0)">
<g filter="url(#filter0_d)">
<path d="M23 26.4C22.1163 26.4 21.4 27.1163 21.4 28C21.4 28.8837 22.1163 29.6 23 29.6V26.4ZM51.1314 29.1314C51.7562 28.5065 51.7562 27.4935 51.1314 26.8686L40.949 16.6863C40.3242 16.0615 39.3111 16.0615 38.6863 16.6863C38.0615 17.3111 38.0615 18.3242 38.6863 18.949L47.7373 28L38.6863 37.051C38.0615 37.6758 38.0615 38.6889 38.6863 39.3137C39.3111 39.9385 40.3242 39.9385 40.949 39.3137L51.1314 29.1314ZM23 29.6H50V26.4H23V29.6Z" fill="#D23600"/>
</g>
<g filter="url(#filter1_d)">
<path d="M7 11.4C6.11634 11.4 5.4 12.1163 5.4 13C5.4 13.8837 6.11634 14.6 7 14.6V11.4ZM35.1314 14.1314C35.7562 13.5065 35.7562 12.4935 35.1314 11.8686L24.949 1.68629C24.3242 1.06145 23.3111 1.06145 22.6863 1.68629C22.0615 2.31113 22.0615 3.32419 22.6863 3.94903L31.7373 13L22.6863 22.051C22.0615 22.6758 22.0615 23.6889 22.6863 24.3137C23.3111 24.9385 24.3242 24.9385 24.949 24.3137L35.1314 14.1314ZM7 14.6H34V11.4H7V14.6Z" fill="#7A7A7A"/>
</g>
<g filter="url(#filter2_d)">
<path d="M7 41.4C6.11634 41.4 5.4 42.1163 5.4 43C5.4 43.8837 6.11634 44.6 7 44.6V41.4ZM35.1314 44.1314C35.7562 43.5065 35.7562 42.4935 35.1314 41.8686L24.949 31.6863C24.3242 31.0615 23.3111 31.0615 22.6863 31.6863C22.0615 32.3111 22.0615 33.3242 22.6863 33.949L31.7373 43L22.6863 52.051C22.0615 52.6758 22.0615 53.6889 22.6863 54.3137C23.3111 54.9385 24.3242 54.9385 24.949 54.3137L35.1314 44.1314ZM7 44.6H34V41.4H7V44.6Z" fill="#00CBD2"/>
</g>
</g>
<defs>
<filter id="filter0_d" x="18.4" y="14.2177" width="36.2" height="29.5647" filterUnits="userSpaceOnUse" color-interpolation-filters="sRGB">
<feFlood flood-opacity="0" result="BackgroundImageFix"/>
<feColorMatrix in="SourceAlpha" type="matrix" values="0 0 0 0 0 0 0 0 0 0 0 0 0 0 0 0 0 0 127 0"/>
<feOffset dy="1"/>
<feGaussianBlur stdDeviation="1.5"/>
<feColorMatrix type="matrix" values="0 0 0 0 0 0 0 0 0 0 0 0 0 0 0 0 0 0 0.5 0"/>
<feBlend mode="normal" in2="BackgroundImageFix" result="effect1_dropShadow"/>
<feBlend mode="normal" in="SourceGraphic" in2="effect1_dropShadow" result="shape"/>
</filter>
<filter id="filter1_d" x="2.40002" y="-0.782341" width="36.2" height="29.5647" filterUnits="userSpaceOnUse" color-interpolation-filters="sRGB">
<feFlood flood-opacity="0" result="BackgroundImageFix"/>
<feColorMatrix in="SourceAlpha" type="matrix" values="0 0 0 0 0 0 0 0 0 0 0 0 0 0 0 0 0 0 127 0"/>
<feOffset dy="1"/>
<feGaussianBlur stdDeviation="1.5"/>
<feColorMatrix type="matrix" values="0 0 0 0 0 0 0 0 0 0 0 0 0 0 0 0 0 0 0.5 0"/>
<feBlend mode="normal" in2="BackgroundImageFix" result="effect1_dropShadow"/>
<feBlend mode="normal" in="SourceGraphic" in2="effect1_dropShadow" result="shape"/>
</filter>
<filter id="filter2_d" x="2.40002" y="29.2177" width="36.2" height="29.5647" filterUnits="userSpaceOnUse" color-interpolation-filters="sRGB">
<feFlood flood-opacity="0" result="BackgroundImageFix"/>
<feColorMatrix in="SourceAlpha" type="matrix" values="0 0 0 0 0 0 0 0 0 0 0 0 0 0 0 0 0 0 127 0"/>
<feOffset dy="1"/>
<feGaussianBlur stdDeviation="1.5"/>
<feColorMatrix type="matrix" values="0 0 0 0 0 0 0 0 0 0 0 0 0 0 0 0 0 0 0.5 0"/>
<feBlend mode="normal" in2="BackgroundImageFix" result="effect1_dropShadow"/>
<feBlend mode="normal" in="SourceGraphic" in2="effect1_dropShadow" result="shape"/>
</filter>
<clipPath id="clip0">
<rect width="56" height="56" fill="white"/>
</clipPath>
</defs>
</svg>
